<mxfile host="app.diagrams.net" modified="2024-05-26T22:17:25.231Z" agent="Mozilla/5.0 (X11; Ubuntu; Linux x86_64; rv:122.0) Gecko/20100101 Firefox/122.0" etag="0tcT-wT-Nkb5UffDRuTC" version="24.4.8" type="device">
  <diagram name="Seite-1" id="6yveoyM_IHHLcaXJ8_ne">
    <mxGraphModel dx="1687" dy="931" grid="1" gridSize="10" guides="1" tooltips="1" connect="1" arrows="1" fold="1" page="1" pageScale="1" pageWidth="827" pageHeight="1169" math="0" shadow="0">
      <root>
        <mxCell id="0" />
        <mxCell id="1" parent="0" />
        <mxCell id="xJWadCz_VL9EeZMJa7YK-1" value="" style="rounded=0;whiteSpace=wrap;html=1;strokeColor=#666666;fillColor=#f5f5f5;fontColor=#333333;" parent="1" vertex="1">
          <mxGeometry x="74" y="140" width="686" height="480" as="geometry" />
        </mxCell>
        <mxCell id="xJWadCz_VL9EeZMJa7YK-48" value="" style="rounded=0;whiteSpace=wrap;html=1;fillColor=#E6E6E6;" parent="1" vertex="1">
          <mxGeometry x="74" y="560" width="686" height="60" as="geometry" />
        </mxCell>
        <mxCell id="xJWadCz_VL9EeZMJa7YK-18" value="" style="rounded=1;whiteSpace=wrap;html=1;rotation=45;" parent="1" vertex="1">
          <mxGeometry x="680" y="176.99" width="30" height="9.5" as="geometry" />
        </mxCell>
        <mxCell id="xJWadCz_VL9EeZMJa7YK-2" value="" style="rounded=0;whiteSpace=wrap;html=1;strokeColor=#b85450;fillColor=#FF3333;" parent="1" vertex="1">
          <mxGeometry x="204" y="260" width="10" height="320" as="geometry" />
        </mxCell>
        <mxCell id="xJWadCz_VL9EeZMJa7YK-3" value="" style="rounded=0;whiteSpace=wrap;html=1;strokeColor=#b85450;fillColor=#FF3333;" parent="1" vertex="1">
          <mxGeometry x="320" y="260" width="10" height="320" as="geometry" />
        </mxCell>
        <mxCell id="xJWadCz_VL9EeZMJa7YK-4" value="" style="rounded=0;whiteSpace=wrap;html=1;strokeColor=#b85450;fillColor=#FF3333;" parent="1" vertex="1">
          <mxGeometry x="620" y="260" width="10" height="320" as="geometry" />
        </mxCell>
        <mxCell id="xJWadCz_VL9EeZMJa7YK-5" value="" style="rounded=0;whiteSpace=wrap;html=1;fillColor=#dae8fc;strokeColor=#6c8ebf;" parent="1" vertex="1">
          <mxGeometry x="214" y="310" width="106" height="10" as="geometry" />
        </mxCell>
        <mxCell id="xJWadCz_VL9EeZMJa7YK-6" value="" style="rounded=0;whiteSpace=wrap;html=1;fillColor=#dae8fc;strokeColor=#6c8ebf;" parent="1" vertex="1">
          <mxGeometry x="214" y="375" width="106" height="10" as="geometry" />
        </mxCell>
        <mxCell id="xJWadCz_VL9EeZMJa7YK-7" value="" style="rounded=0;whiteSpace=wrap;html=1;fillColor=#dae8fc;strokeColor=#6c8ebf;" parent="1" vertex="1">
          <mxGeometry x="214" y="440" width="106" height="10" as="geometry" />
        </mxCell>
        <mxCell id="xJWadCz_VL9EeZMJa7YK-8" value="" style="rounded=0;whiteSpace=wrap;html=1;fillColor=#dae8fc;strokeColor=#6c8ebf;" parent="1" vertex="1">
          <mxGeometry x="214" y="510" width="106" height="10" as="geometry" />
        </mxCell>
        <mxCell id="xJWadCz_VL9EeZMJa7YK-12" value="" style="rounded=0;whiteSpace=wrap;html=1;fillColor=#dae8fc;strokeColor=#6c8ebf;" parent="1" vertex="1">
          <mxGeometry x="330" y="310" width="290" height="10" as="geometry" />
        </mxCell>
        <mxCell id="xJWadCz_VL9EeZMJa7YK-13" value="" style="rounded=0;whiteSpace=wrap;html=1;fillColor=#dae8fc;strokeColor=#6c8ebf;" parent="1" vertex="1">
          <mxGeometry x="330" y="375" width="290" height="10" as="geometry" />
        </mxCell>
        <mxCell id="xJWadCz_VL9EeZMJa7YK-14" value="" style="rounded=0;whiteSpace=wrap;html=1;fillColor=#dae8fc;strokeColor=#6c8ebf;" parent="1" vertex="1">
          <mxGeometry x="330" y="440" width="290" height="10" as="geometry" />
        </mxCell>
        <mxCell id="xJWadCz_VL9EeZMJa7YK-15" value="" style="rounded=0;whiteSpace=wrap;html=1;fillColor=#dae8fc;strokeColor=#6c8ebf;" parent="1" vertex="1">
          <mxGeometry x="330" y="510" width="290" height="10" as="geometry" />
        </mxCell>
        <mxCell id="xJWadCz_VL9EeZMJa7YK-16" value="" style="rounded=1;whiteSpace=wrap;html=1;rotation=-45;fillColor=#E6E6E6;" parent="1" vertex="1">
          <mxGeometry x="692.02" y="170.00000000000003" width="49.78" height="9.5" as="geometry" />
        </mxCell>
        <mxCell id="xJWadCz_VL9EeZMJa7YK-26" value="" style="rounded=0;whiteSpace=wrap;html=1;strokeColor=#666666;fillColor=#f5f5f5;fontColor=#333333;" parent="1" vertex="1">
          <mxGeometry x="340" y="345" width="20" height="30" as="geometry" />
        </mxCell>
        <mxCell id="xJWadCz_VL9EeZMJa7YK-28" value="" style="rounded=0;whiteSpace=wrap;html=1;strokeColor=#666666;fillColor=#f5f5f5;fontColor=#333333;" parent="1" vertex="1">
          <mxGeometry x="370" y="345" width="20" height="30" as="geometry" />
        </mxCell>
        <mxCell id="xJWadCz_VL9EeZMJa7YK-29" value="" style="rounded=0;whiteSpace=wrap;html=1;strokeColor=#666666;fillColor=#f5f5f5;fontColor=#333333;" parent="1" vertex="1">
          <mxGeometry x="400" y="345" width="20" height="30" as="geometry" />
        </mxCell>
        <mxCell id="xJWadCz_VL9EeZMJa7YK-30" value="" style="rounded=0;whiteSpace=wrap;html=1;strokeColor=#666666;fillColor=#f5f5f5;fontColor=#333333;" parent="1" vertex="1">
          <mxGeometry x="430" y="345" width="20" height="30" as="geometry" />
        </mxCell>
        <mxCell id="xJWadCz_VL9EeZMJa7YK-31" value="" style="rounded=0;whiteSpace=wrap;html=1;strokeColor=#666666;fillColor=#f5f5f5;fontColor=#333333;" parent="1" vertex="1">
          <mxGeometry x="460" y="345" width="20" height="30" as="geometry" />
        </mxCell>
        <mxCell id="xJWadCz_VL9EeZMJa7YK-32" value="" style="rounded=0;whiteSpace=wrap;html=1;strokeColor=#666666;fillColor=#f5f5f5;fontColor=#333333;" parent="1" vertex="1">
          <mxGeometry x="490" y="345" width="20" height="30" as="geometry" />
        </mxCell>
        <mxCell id="xJWadCz_VL9EeZMJa7YK-37" value="" style="rounded=0;whiteSpace=wrap;html=1;fillColor=#f5f5f5;fontColor=#333333;strokeColor=#666666;" parent="1" vertex="1">
          <mxGeometry x="340" y="430" width="110" height="10" as="geometry" />
        </mxCell>
        <mxCell id="xJWadCz_VL9EeZMJa7YK-38" value="" style="rounded=0;whiteSpace=wrap;html=1;fillColor=#f5f5f5;fontColor=#333333;strokeColor=#666666;" parent="1" vertex="1">
          <mxGeometry x="340" y="420" width="110" height="10" as="geometry" />
        </mxCell>
        <mxCell id="xJWadCz_VL9EeZMJa7YK-39" value="" style="rounded=0;whiteSpace=wrap;html=1;fillColor=#f5f5f5;fontColor=#333333;strokeColor=#666666;" parent="1" vertex="1">
          <mxGeometry x="340" y="410" width="110" height="10" as="geometry" />
        </mxCell>
        <mxCell id="xJWadCz_VL9EeZMJa7YK-40" value="" style="rounded=0;whiteSpace=wrap;html=1;fillColor=#f5f5f5;fontColor=#333333;strokeColor=#666666;" parent="1" vertex="1">
          <mxGeometry x="340" y="400" width="110" height="10" as="geometry" />
        </mxCell>
        <mxCell id="xJWadCz_VL9EeZMJa7YK-41" value="" style="rounded=0;whiteSpace=wrap;html=1;fillColor=#f5f5f5;fontColor=#333333;strokeColor=#666666;" parent="1" vertex="1">
          <mxGeometry x="220" y="340" width="90" height="35" as="geometry" />
        </mxCell>
        <mxCell id="xJWadCz_VL9EeZMJa7YK-42" value="" style="rounded=0;whiteSpace=wrap;html=1;fillColor=#f5f5f5;fontColor=#333333;strokeColor=#666666;" parent="1" vertex="1">
          <mxGeometry x="220" y="405" width="90" height="35" as="geometry" />
        </mxCell>
        <mxCell id="xJWadCz_VL9EeZMJa7YK-45" value="" style="rounded=0;whiteSpace=wrap;html=1;fillColor=#f5f5f5;fontColor=#333333;strokeColor=#666666;" parent="1" vertex="1">
          <mxGeometry x="550" y="470" width="60" height="40" as="geometry" />
        </mxCell>
        <mxCell id="xJWadCz_VL9EeZMJa7YK-49" value="" style="rounded=0;whiteSpace=wrap;html=1;fillColor=#f5f5f5;fontColor=#333333;strokeColor=#666666;" parent="1" vertex="1">
          <mxGeometry x="340" y="500" width="20" height="10" as="geometry" />
        </mxCell>
        <mxCell id="xJWadCz_VL9EeZMJa7YK-50" value="" style="rounded=0;whiteSpace=wrap;html=1;fillColor=#f5f5f5;fontColor=#333333;strokeColor=#666666;" parent="1" vertex="1">
          <mxGeometry x="360" y="500" width="20" height="10" as="geometry" />
        </mxCell>
        <mxCell id="xJWadCz_VL9EeZMJa7YK-51" value="" style="rounded=0;whiteSpace=wrap;html=1;fillColor=#f5f5f5;fontColor=#333333;strokeColor=#666666;" parent="1" vertex="1">
          <mxGeometry x="380" y="500" width="20" height="10" as="geometry" />
        </mxCell>
        <mxCell id="xJWadCz_VL9EeZMJa7YK-52" value="" style="rounded=0;whiteSpace=wrap;html=1;fillColor=#f5f5f5;fontColor=#333333;strokeColor=#666666;" parent="1" vertex="1">
          <mxGeometry x="340" y="490" width="20" height="10" as="geometry" />
        </mxCell>
        <mxCell id="xJWadCz_VL9EeZMJa7YK-53" value="" style="rounded=0;whiteSpace=wrap;html=1;fillColor=#f5f5f5;fontColor=#333333;strokeColor=#666666;" parent="1" vertex="1">
          <mxGeometry x="360" y="490" width="20" height="10" as="geometry" />
        </mxCell>
        <mxCell id="xJWadCz_VL9EeZMJa7YK-54" value="" style="rounded=0;whiteSpace=wrap;html=1;fillColor=#f5f5f5;fontColor=#333333;strokeColor=#666666;" parent="1" vertex="1">
          <mxGeometry x="380" y="490" width="20" height="10" as="geometry" />
        </mxCell>
        <mxCell id="-1PWGVfFnnW9SpQ-e0z1-3" value="" style="rounded=0;whiteSpace=wrap;html=1;" parent="1" vertex="1">
          <mxGeometry x="290" y="152.51" width="360" height="47.49" as="geometry" />
        </mxCell>
        <mxCell id="-1PWGVfFnnW9SpQ-e0z1-4" value="" style="rounded=0;whiteSpace=wrap;html=1;rotation=-90;fillColor=#f8cecc;strokeColor=#b85450;" parent="1" vertex="1">
          <mxGeometry x="284" y="171.26" width="40" height="10" as="geometry" />
        </mxCell>
        <mxCell id="-1PWGVfFnnW9SpQ-e0z1-5" value="" style="rounded=0;whiteSpace=wrap;html=1;rotation=-90;fillColor=#f8cecc;strokeColor=#b85450;" parent="1" vertex="1">
          <mxGeometry x="319.37" y="166.89" width="40" height="18.74" as="geometry" />
        </mxCell>
        <mxCell id="-1PWGVfFnnW9SpQ-e0z1-7" value="" style="rounded=0;whiteSpace=wrap;html=1;fillColor=#dae8fc;strokeColor=#6c8ebf;" parent="1" vertex="1">
          <mxGeometry x="364" y="171.26" width="26" height="10" as="geometry" />
        </mxCell>
        <mxCell id="qOn1k9T2l-QRSkFDptNG-1" value="" style="rounded=1;whiteSpace=wrap;html=1;rotation=-45;" vertex="1" parent="1">
          <mxGeometry x="214" y="166.75" width="40" height="10" as="geometry" />
        </mxCell>
        <mxCell id="qOn1k9T2l-QRSkFDptNG-2" value="" style="shape=or;whiteSpace=wrap;html=1;rotation=90;fillColor=#E6E6E6;" vertex="1" parent="1">
          <mxGeometry x="220.5" y="156.25" width="20" height="47" as="geometry" />
        </mxCell>
        <mxCell id="qOn1k9T2l-QRSkFDptNG-3" value="" style="rounded=0;whiteSpace=wrap;html=1;" vertex="1" parent="1">
          <mxGeometry x="160" y="155.75" width="31" height="38.5" as="geometry" />
        </mxCell>
        <mxCell id="qOn1k9T2l-QRSkFDptNG-4" value="" style="endArrow=none;html=1;rounded=0;" edge="1" parent="1">
          <mxGeometry width="50" height="50" relative="1" as="geometry">
            <mxPoint x="165.5" y="163.75" as="sourcePoint" />
            <mxPoint x="185.5" y="163.75" as="targetPoint" />
          </mxGeometry>
        </mxCell>
        <mxCell id="qOn1k9T2l-QRSkFDptNG-5" value="" style="endArrow=none;html=1;rounded=0;" edge="1" parent="1">
          <mxGeometry width="50" height="50" relative="1" as="geometry">
            <mxPoint x="165.5" y="174.25" as="sourcePoint" />
            <mxPoint x="185.5" y="174.25" as="targetPoint" />
          </mxGeometry>
        </mxCell>
        <mxCell id="qOn1k9T2l-QRSkFDptNG-6" value="" style="endArrow=none;html=1;rounded=0;" edge="1" parent="1">
          <mxGeometry width="50" height="50" relative="1" as="geometry">
            <mxPoint x="165.5" y="184.25" as="sourcePoint" />
            <mxPoint x="185.5" y="184.25" as="targetPoint" />
          </mxGeometry>
        </mxCell>
        <mxCell id="qOn1k9T2l-QRSkFDptNG-7" value="" style="whiteSpace=wrap;html=1;aspect=fixed;" vertex="1" parent="1">
          <mxGeometry x="90" y="164.25" width="30" height="30" as="geometry" />
        </mxCell>
        <mxCell id="qOn1k9T2l-QRSkFDptNG-8" value="" style="endArrow=none;html=1;rounded=0;" edge="1" parent="1">
          <mxGeometry width="50" height="50" relative="1" as="geometry">
            <mxPoint x="120" y="194.25" as="sourcePoint" />
            <mxPoint x="130" y="184.25" as="targetPoint" />
          </mxGeometry>
        </mxCell>
        <mxCell id="qOn1k9T2l-QRSkFDptNG-9" value="" style="endArrow=none;html=1;rounded=0;" edge="1" parent="1">
          <mxGeometry width="50" height="50" relative="1" as="geometry">
            <mxPoint x="120" y="164.25" as="sourcePoint" />
            <mxPoint x="130" y="154.25" as="targetPoint" />
          </mxGeometry>
        </mxCell>
        <mxCell id="qOn1k9T2l-QRSkFDptNG-10" value="" style="endArrow=none;html=1;rounded=0;" edge="1" parent="1">
          <mxGeometry width="50" height="50" relative="1" as="geometry">
            <mxPoint x="90" y="164.25" as="sourcePoint" />
            <mxPoint x="100" y="154.25" as="targetPoint" />
          </mxGeometry>
        </mxCell>
        <mxCell id="qOn1k9T2l-QRSkFDptNG-11" value="" style="endArrow=none;html=1;rounded=0;" edge="1" parent="1">
          <mxGeometry width="50" height="50" relative="1" as="geometry">
            <mxPoint x="100" y="154.25" as="sourcePoint" />
            <mxPoint x="130" y="154.25" as="targetPoint" />
          </mxGeometry>
        </mxCell>
        <mxCell id="qOn1k9T2l-QRSkFDptNG-12" value="" style="endArrow=none;html=1;rounded=0;" edge="1" parent="1">
          <mxGeometry width="50" height="50" relative="1" as="geometry">
            <mxPoint x="130" y="154.25" as="sourcePoint" />
            <mxPoint x="130" y="184.25" as="targetPoint" />
          </mxGeometry>
        </mxCell>
        <mxCell id="qOn1k9T2l-QRSkFDptNG-13" value="" style="endArrow=none;html=1;rounded=0;" edge="1" parent="1">
          <mxGeometry width="50" height="50" relative="1" as="geometry">
            <mxPoint x="105" y="164.25" as="sourcePoint" />
            <mxPoint x="115" y="154.25" as="targetPoint" />
          </mxGeometry>
        </mxCell>
        <mxCell id="qOn1k9T2l-QRSkFDptNG-14" value="" style="endArrow=none;html=1;rounded=0;" edge="1" parent="1">
          <mxGeometry width="50" height="50" relative="1" as="geometry">
            <mxPoint x="104.9" y="164.25" as="sourcePoint" />
            <mxPoint x="104.9" y="174.25" as="targetPoint" />
          </mxGeometry>
        </mxCell>
        <mxCell id="xJWadCz_VL9EeZMJa7YK-33" value="" style="rounded=0;whiteSpace=wrap;html=1;strokeColor=#666666;fillColor=#f5f5f5;fontColor=#333333;" parent="1" vertex="1">
          <mxGeometry x="404" y="161.26" width="20" height="30" as="geometry" />
        </mxCell>
        <mxCell id="qOn1k9T2l-QRSkFDptNG-15" value="3" style="text;html=1;align=center;verticalAlign=middle;whiteSpace=wrap;rounded=0;" vertex="1" parent="1">
          <mxGeometry x="401" y="176.99" width="60" height="30" as="geometry" />
        </mxCell>
        <mxCell id="qOn1k9T2l-QRSkFDptNG-16" value="" style="rounded=0;whiteSpace=wrap;html=1;fillColor=#f5f5f5;fontColor=#333333;strokeColor=#666666;" vertex="1" parent="1">
          <mxGeometry x="440" y="156.26000000000002" width="60" height="40" as="geometry" />
        </mxCell>
        <mxCell id="qOn1k9T2l-QRSkFDptNG-17" value="1" style="text;html=1;align=center;verticalAlign=middle;whiteSpace=wrap;rounded=0;" vertex="1" parent="1">
          <mxGeometry x="477" y="176.75" width="60" height="30" as="geometry" />
        </mxCell>
        <mxCell id="qOn1k9T2l-QRSkFDptNG-18" value="" style="rounded=0;whiteSpace=wrap;html=1;fillColor=#f5f5f5;fontColor=#333333;strokeColor=#666666;" vertex="1" parent="1">
          <mxGeometry x="520" y="156.26000000000002" width="30" height="40" as="geometry" />
        </mxCell>
        <mxCell id="qOn1k9T2l-QRSkFDptNG-19" value="2" style="text;html=1;align=center;verticalAlign=middle;whiteSpace=wrap;rounded=0;" vertex="1" parent="1">
          <mxGeometry x="528" y="176.75" width="60" height="30" as="geometry" />
        </mxCell>
        <mxCell id="qOn1k9T2l-QRSkFDptNG-22" value="" style="rounded=1;whiteSpace=wrap;html=1;" vertex="1" parent="1">
          <mxGeometry x="570" y="312.5" width="88.2" height="87.5" as="geometry" />
        </mxCell>
        <mxCell id="qOn1k9T2l-QRSkFDptNG-23" value="" style="rounded=1;whiteSpace=wrap;html=1;fillColor=#E6E6E6;" vertex="1" parent="1">
          <mxGeometry x="575.11" y="320" width="77.98" height="20" as="geometry" />
        </mxCell>
        <mxCell id="qOn1k9T2l-QRSkFDptNG-24" value="" style="rounded=1;whiteSpace=wrap;html=1;fillColor=#E6E6E6;" vertex="1" parent="1">
          <mxGeometry x="575.11" y="347.5" width="77.98" height="20" as="geometry" />
        </mxCell>
        <mxCell id="qOn1k9T2l-QRSkFDptNG-25" value="" style="rounded=1;whiteSpace=wrap;html=1;rotation=45;" vertex="1" parent="1">
          <mxGeometry x="621.58" y="386.83000000000004" width="10.69" height="3.17" as="geometry" />
        </mxCell>
        <mxCell id="qOn1k9T2l-QRSkFDptNG-26" value="" style="rounded=1;whiteSpace=wrap;html=1;rotation=-45;fillColor=#E6E6E6;" vertex="1" parent="1">
          <mxGeometry x="625.11" y="381" width="27.98" height="5.34" as="geometry" />
        </mxCell>
      </root>
    </mxGraphModel>
  </diagram>
</mxfile>
